<svg width="128" height="128" viewBox="0 0 30 30" fill="none" xmlns="http://www.w3.org/2000/svg">
    <path
        d="M15.8593 10H9.99994C4.47709 10 0 14.4771 0 19.9999C0 25.5228 4.47709 29.9999 9.99994 29.9999C15.5228 29.9999 19.9999 25.5228 19.9999 19.9999H14.1405C14.1405 22.2867 12.2867 24.1405 9.99994 24.1405C7.71319 24.1405 5.85938 22.2867 5.85938 19.9999C5.85938 17.7132 7.70866 15.8594 9.99994 15.8594C13.2292 15.8594 15.8593 13.2373 15.8593 10Z"
        fill="#8F34D3" />
    <path
        d="M14.1407 19.9999H20.0001C25.5229 19.9999 30 15.5228 30 9.99994C30 4.47709 25.5228 0 19.9999 0C14.4771 0 10 4.47709 10 9.99994H15.8594C15.8594 7.71319 17.7132 5.85938 19.9999 5.85938C22.2867 5.85938 24.1405 7.71319 24.1405 9.99994C24.1405 12.2867 22.2912 14.1405 19.9999 14.1405C16.7707 14.1405 14.1407 16.7626 14.1407 19.9999Z"
        fill="#01DAE8" />
</svg>